<?xml version="1.0" encoding="utf-8"?>
<svg version="1.1" xmlns:xlink="http://www.w3.org/1999/xlink" width="300px" height="170px" xmlns="http://www.w3.org/2000/svg">
  <g transform="matrix(1 0 0 1 -400 -474 )">
    <path d="M 400 474  L 700 474  L 700 644  L 400 644  L 400 474  " fill-rule="nonzero" fill="#cccccc" stroke="none" />
    <path d="M 412 486  L 688 486  L 688 632  L 412 632  L 412 486  " fill-rule="nonzero" fill="#ffffff" stroke="none" />
    <path d="M 568.75 525  C 561.61 525  556 519.39  556 512.25  C 556 505.11  561.61 499.5  568.75 499.5  C 575.89 499.5  581.5 505.11  581.5 512.25  C 581.5 519.39  575.89 525  568.75 525  " fill-rule="nonzero" fill="#cccccc" stroke="none" />
    <path d="M 417 628  L 417 552.65  L 483.75 518.4  L 577.2 581.42  L 630.6 538.95  L 684 581.42  L 684 628  L 417 628  " fill-rule="nonzero" fill="#169bd5" stroke="none" />
  </g>
</svg>