<?xml version="1.0" encoding="utf-8"?>
<svg version="1.1" xmlns:xlink="http://www.w3.org/1999/xlink" width="13px" height="13px" viewBox="605 353  13 13" xmlns="http://www.w3.org/2000/svg">
  <path d="M 611.5 353  C 615.14 353  618 355.86  618 359.5  C 618 363.14  615.14 366  611.5 366  C 607.86 366  605 363.14  605 359.5  C 605 355.86  607.86 353  611.5 353  Z " fill-rule="nonzero" fill="#f0f0f0" stroke="none" />
  <path d="M 611.5 353.5  C 614.86 353.5  617.5 356.14  617.5 359.5  C 617.5 362.86  614.86 365.5  611.5 365.5  C 608.14 365.5  605.5 362.86  605.5 359.5  C 605.5 356.14  608.14 353.5  611.5 353.5  Z " stroke-width="1" stroke="#797979" fill="none" />
  <path d="M 611.5 362.75  C 609.68 362.75  608.25 361.32  608.25 359.5  C 608.25 357.68  609.68 356.25  611.5 356.25  C 613.32 356.25  614.75 357.68  614.75 359.5  C 614.75 361.32  613.32 362.75  611.5 362.75  " fill-rule="nonzero" fill="#797979" stroke="none" />
</svg>