<?xml version="1.0" encoding="utf-8"?>
<svg version="1.1" xmlns:xlink="http://www.w3.org/1999/xlink" width="17px" height="19px" xmlns="http://www.w3.org/2000/svg">
  <g transform="matrix(1 0 0 1 -326 -367 )">
    <path d="M 12.794270833333332 0.7209821428571435  L 16.247395833333332 4.029017857142857  C 16.453993055555557 4.226934523809523  16.63107638888889 4.495535714285715  16.778645833333332 4.834821428571428  C 16.92621527777778 5.174107142857143  17 5.4851190476190474  17 5.767857142857143  L 17 17.982142857142858  C 17 18.264880952380953  16.89670138888889 18.505208333333332  16.690104166666668 18.703125  C 16.483506944444446 18.901041666666668  16.23263888888889 19  15.9375 19  L 1.0625 19  C 0.7673611111111112 19  0.5164930555555556 18.901041666666668  0.30989583333333337 18.703125  C 0.1032986111111111 18.505208333333332  0 18.264880952380953  0 17.982142857142858  L 0 1.0178571428571435  C 0 0.7351190476190471  0.1032986111111111 0.49479166666666596  0.30989583333333337 0.296875  C 0.5164930555555556 0.09895833333333404  0.7673611111111112 0  1.0625 0  L 10.979166666666668 0  C 11.274305555555557 0  11.598958333333332 0.07068452380952461  11.953125 0.21205357142857173  C 12.307291666666668 0.35342261904761885  12.587673611111112 0.5230654761904754  12.794270833333332 0.7209821428571435  Z M 11.787109375 1.6752232142857153  C 11.698567708333332 1.5904017857142847  11.547309027777779 1.5126488095238073  11.333333333333332 1.4419642857142847  L 11.333333333333332 5.428571428571428  L 15.494791666666668 5.428571428571428  C 15.421006944444446 5.2235863095238075  15.33984375 5.078683035714285  15.251302083333332 4.993861607142857  L 11.787109375 1.6752232142857153  Z M 1.4166666666666665 17.642857142857142  L 15.583333333333332 17.642857142857142  L 15.583333333333332 6.785714285714285  L 10.979166666666668 6.785714285714285  C 10.684027777777777 6.785714285714285  10.433159722222223 6.686755952380951  10.2265625 6.488839285714285  C 10.019965277777777 6.290922619047619  9.916666666666668 6.0505952380952355  9.916666666666668 5.767857142857143  L 9.916666666666668 1.3571428571428565  L 1.4166666666666665 1.3571428571428565  L 1.4166666666666665 17.642857142857142  Z M 5.899088541666666 8.142857142857144  L 2.578776041666667 8.142857142857144  L 2.578776041666667 9.27734375  L 3.353515625 9.27734375  L 5.168619791666666 16.28571428571429  L 6.928385416666666 16.28571428571429  L 8.345052083333334 11.143415178571429  C 8.39670138888889 11.002046130952381  8.43359375 10.839471726190474  8.455729166666666 10.655691964285714  C 8.47048611111111 10.542596726190474  8.477864583333334 10.457775297619047  8.477864583333334 10.401227678571429  L 8.522135416666668 10.401227678571429  L 8.555338541666668 10.655691964285714  C 8.56271701388889 10.676897321428571  8.575629340277779 10.747581845238095  8.594075520833332 10.867745535714286  C 8.61252170138889 10.987909226190474  8.6328125 11.079799107142856  8.654947916666668 11.143415178571429  L 10.071614583333332 16.28571428571429  L 11.831380208333332 16.28571428571429  L 13.646484375 9.27734375  L 14.421223958333332 9.27734375  L 14.421223958333332 8.142857142857144  L 11.100911458333332 8.142857142857144  L 11.100911458333332 9.27734375  L 12.097005208333332 9.27734375  L 11.001302083333332 13.921316964285714  C 10.964409722222223 14.062686011904763  10.938585069444445 14.225260416666668  10.923828125 14.409040178571429  L 10.901692708333332 14.631696428571429  L 10.857421875 14.631696428571429  C 10.857421875000002 14.610491071428571  10.855577256944446 14.587518601190474  10.851888020833332 14.562779017857144  C 10.848198784722223 14.538039434523812  10.842664930555557 14.509765625  10.835286458333332 14.477957589285714  C 10.827907986111112 14.446149553571429  10.824218750000002 14.423177083333332  10.82421875 14.409040178571429  C 10.816840277777777 14.373697916666668  10.802083333333332 14.299479166666668  10.779947916666668 14.186383928571429  C 10.7578125 14.073288690476188  10.739366319444445 13.984933035714286  10.724609375 13.921316964285714  L 9.130859375 8.142857142857144  L 7.869140625 8.142857142857144  L 6.275390625 13.921316964285714  C 6.260633680555556 13.984933035714286  6.244032118055556 14.071521577380953  6.2255859375 14.181082589285714  C 6.207139756944445 14.290643601190474  6.194227430555556 14.366629464285714  6.186848958333334 14.409040178571429  L 6.142578125 14.631696428571429  L 6.098307291666666 14.631696428571429  L 6.076171875 14.409040178571429  C 6.061414930555556 14.225260416666668  6.035590277777779 14.062686011904763  5.998697916666666 13.921316964285714  L 4.902994791666666 9.27734375  L 5.899088541666666 9.27734375  L 5.899088541666666 8.142857142857144  Z " fill-rule="nonzero" fill="#000000" stroke="none" transform="matrix(1 0 0 1 326 367 )" />
  </g>
</svg>