<?xml version="1.0" encoding="utf-8"?>
<svg version="1.1" xmlns:xlink="http://www.w3.org/1999/xlink" width="13px" height="13px" viewBox="965 633  13 13" xmlns="http://www.w3.org/2000/svg">
  <path d="M 971.5 633  C 975.14 633  978 635.86  978 639.5  C 978 643.14  975.14 646  971.5 646  C 967.86 646  965 643.14  965 639.5  C 965 635.86  967.86 633  971.5 633  Z " fill-rule="nonzero" fill="#ffffff" stroke="none" />
  <path d="M 971.5 633.5  C 974.86 633.5  977.5 636.14  977.5 639.5  C 977.5 642.86  974.86 645.5  971.5 645.5  C 968.14 645.5  965.5 642.86  965.5 639.5  C 965.5 636.14  968.14 633.5  971.5 633.5  Z " stroke-width="1" stroke="#797979" fill="none" />
  <path d="M 971.5 642.75  C 969.68 642.75  968.25 641.32  968.25 639.5  C 968.25 637.68  969.68 636.25  971.5 636.25  C 973.32 636.25  974.75 637.68  974.75 639.5  C 974.75 641.32  973.32 642.75  971.5 642.75  " fill-rule="nonzero" fill="#797979" stroke="none" />
</svg>