<?xml version="1.0" encoding="utf-8"?>
<svg version="1.1" xmlns:xlink="http://www.w3.org/1999/xlink" width="40px" height="40px" xmlns="http://www.w3.org/2000/svg">
  <defs>
    <filter x="921px" y="276px" width="40px" height="40px" filterUnits="userSpaceOnUse" id="filter3">
      <feOffset dx="1" dy="1" in="SourceAlpha" result="shadowOffsetInner" />
      <feGaussianBlur stdDeviation="2.5" in="shadowOffsetInner" result="shadowGaussian" />
      <feComposite in2="shadowGaussian" operator="atop" in="SourceAlpha" result="shadowComposite" />
      <feColorMatrix type="matrix" values="0 0 0 0 0  0 0 0 0 0  0 0 0 0 0  0 0 0 0.6980392156862745 0  " in="shadowComposite" />
    </filter>
    <g id="widget4">
      <path d="M 940 280  C 948.4 280  955 286.6  955 295  C 955 303.4  948.4 310  940 310  C 931.6 310  925 303.4  925 295  C 925 286.6  931.6 280  940 280  Z " fill-rule="nonzero" fill="#00c2ff" stroke="none" />
      <path d="M 940 280.5  C 948.12 280.5  954.5 286.88  954.5 295  C 954.5 303.12  948.12 309.5  940 309.5  C 931.88 309.5  925.5 303.12  925.5 295  C 925.5 286.88  931.88 280.5  940 280.5  Z " stroke-width="1" stroke="#ffffff" fill="none" />
    </g>
  </defs>
  <g transform="matrix(1 0 0 1 -921 -276 )">
    <use xlink:href="#widget4" filter="url(#filter3)" />
    <use xlink:href="#widget4" />
  </g>
</svg>