<?xml version="1.0" encoding="utf-8"?>
<svg version="1.1" xmlns:xlink="http://www.w3.org/1999/xlink" width="13px" height="13px" viewBox="605 267  13 13" xmlns="http://www.w3.org/2000/svg">
  <path d="M 611.5 267  C 615.14 267  618 269.86  618 273.5  C 618 277.14  615.14 280  611.5 280  C 607.86 280  605 277.14  605 273.5  C 605 269.86  607.86 267  611.5 267  Z " fill-rule="nonzero" fill="#f0f0f0" stroke="none" />
  <path d="M 611.5 267.5  C 614.86 267.5  617.5 270.14  617.5 273.5  C 617.5 276.86  614.86 279.5  611.5 279.5  C 608.14 279.5  605.5 276.86  605.5 273.5  C 605.5 270.14  608.14 267.5  611.5 267.5  Z " stroke-width="1" stroke="#797979" fill="none" />
  <path d="M 611.5 276.75  C 609.68 276.75  608.25 275.32  608.25 273.5  C 608.25 271.68  609.68 270.25  611.5 270.25  C 613.32 270.25  614.75 271.68  614.75 273.5  C 614.75 275.32  613.32 276.75  611.5 276.75  " fill-rule="nonzero" fill="#797979" stroke="none" />
</svg>