<?xml version="1.0" encoding="utf-8"?>
<svg version="1.1" xmlns:xlink="http://www.w3.org/1999/xlink" width="13px" height="13px" viewBox="561 585  13 13" xmlns="http://www.w3.org/2000/svg">
  <path d="M 567.5 585  C 571.14 585  574 587.86  574 591.5  C 574 595.14  571.14 598  567.5 598  C 563.86 598  561 595.14  561 591.5  C 561 587.86  563.86 585  567.5 585  Z " fill-rule="nonzero" fill="#ffffff" stroke="none" />
  <path d="M 567.5 585.5  C 570.86 585.5  573.5 588.14  573.5 591.5  C 573.5 594.86  570.86 597.5  567.5 597.5  C 564.14 597.5  561.5 594.86  561.5 591.5  C 561.5 588.14  564.14 585.5  567.5 585.5  Z " stroke-width="1" stroke="#797979" fill="none" />
  <path d="M 567.5 594.75  C 565.68 594.75  564.25 593.32  564.25 591.5  C 564.25 589.68  565.68 588.25  567.5 588.25  C 569.32 588.25  570.75 589.68  570.75 591.5  C 570.75 593.32  569.32 594.75  567.5 594.75  " fill-rule="nonzero" fill="#797979" stroke="none" />
</svg>