<?xml version="1.0" encoding="utf-8"?>
<svg version="1.1" xmlns:xlink="http://www.w3.org/1999/xlink" width="13px" height="13px" viewBox="672 421  13 13" xmlns="http://www.w3.org/2000/svg">
  <path d="M 678.5 421  C 682.14 421  685 423.86  685 427.5  C 685 431.14  682.14 434  678.5 434  C 674.86 434  672 431.14  672 427.5  C 672 423.86  674.86 421  678.5 421  Z " fill-rule="nonzero" fill="#ffffff" stroke="none" />
  <path d="M 678.5 421.5  C 681.86 421.5  684.5 424.14  684.5 427.5  C 684.5 430.86  681.86 433.5  678.5 433.5  C 675.14 433.5  672.5 430.86  672.5 427.5  C 672.5 424.14  675.14 421.5  678.5 421.5  Z " stroke-width="1" stroke="#797979" fill="none" />
  <path d="M 678.5 430.75  C 676.68 430.75  675.25 429.32  675.25 427.5  C 675.25 425.68  676.68 424.25  678.5 424.25  C 680.32 424.25  681.75 425.68  681.75 427.5  C 681.75 429.32  680.32 430.75  678.5 430.75  " fill-rule="nonzero" fill="#797979" stroke="none" />
</svg>