<?xml version="1.0" encoding="utf-8"?>
<svg version="1.1" xmlns:xlink="http://www.w3.org/1999/xlink" width="13px" height="13px" viewBox="672 514  13 13" xmlns="http://www.w3.org/2000/svg">
  <path d="M 678.5 514  C 682.14 514  685 516.86  685 520.5  C 685 524.14  682.14 527  678.5 527  C 674.86 527  672 524.14  672 520.5  C 672 516.86  674.86 514  678.5 514  Z " fill-rule="nonzero" fill="#f0f0f0" stroke="none" />
  <path d="M 678.5 514.5  C 681.86 514.5  684.5 517.14  684.5 520.5  C 684.5 523.86  681.86 526.5  678.5 526.5  C 675.14 526.5  672.5 523.86  672.5 520.5  C 672.5 517.14  675.14 514.5  678.5 514.5  Z " stroke-width="1" stroke="#797979" fill="none" />
  <path d="M 678.5 523.75  C 676.68 523.75  675.25 522.32  675.25 520.5  C 675.25 518.68  676.68 517.25  678.5 517.25  C 680.32 517.25  681.75 518.68  681.75 520.5  C 681.75 522.32  680.32 523.75  678.5 523.75  " fill-rule="nonzero" fill="#797979" stroke="none" />
</svg>