<?xml version="1.0" encoding="utf-8"?>
<svg version="1.1" xmlns:xlink="http://www.w3.org/1999/xlink" width="13px" height="13px" viewBox="672 452  13 13" xmlns="http://www.w3.org/2000/svg">
  <path d="M 678.5 452  C 682.14 452  685 454.86  685 458.5  C 685 462.14  682.14 465  678.5 465  C 674.86 465  672 462.14  672 458.5  C 672 454.86  674.86 452  678.5 452  Z " fill-rule="nonzero" fill="#ffffff" stroke="none" />
  <path d="M 678.5 452.5  C 681.86 452.5  684.5 455.14  684.5 458.5  C 684.5 461.86  681.86 464.5  678.5 464.5  C 675.14 464.5  672.5 461.86  672.5 458.5  C 672.5 455.14  675.14 452.5  678.5 452.5  Z " stroke-width="1" stroke="#797979" fill="none" />
  <path d="M 678.5 461.75  C 676.68 461.75  675.25 460.32  675.25 458.5  C 675.25 456.68  676.68 455.25  678.5 455.25  C 680.32 455.25  681.75 456.68  681.75 458.5  C 681.75 460.32  680.32 461.75  678.5 461.75  " fill-rule="nonzero" fill="#797979" stroke="none" />
</svg>